<svg width="309" height="309" viewBox="0 0 309 309" fill="none" xmlns="http://www.w3.org/2000/svg">
<rect width="309" height="309" rx="62" fill="#0A0A0A"/>
<rect x="1.5" y="1.5" width="306" height="306" rx="60.5" stroke="#F5F5F5" stroke-opacity="0.6" stroke-width="3"/>
<path d="M52 243.5H145V188.25H207.5L234.25 243.5H257.5L172.75 65H52V84.75H122.5V140.5H65.5V160H122.5V223.75H52V243.5ZM198.75 168.25H145V85H159.5L198.75 168.25Z" fill="#F5F5F5"/>
<path d="M242.248 79.5C237.83 79.5 234.248 83.0817 234.248 87.5V94.5C234.248 98.9183 237.83 102.5 242.248 102.5H249.5C253.918 102.5 257.5 98.9183 257.5 94.5V87.5C257.5 83.0817 253.918 79.5 249.5 79.5H242.248ZM234.248 119.232V243.5H257.5V119.232H234.248Z" fill="#F5F5F5"/>
</svg>
